<svg id="Layer_1" data-name="Layer 1" xmlns="http://www.w3.org/2000/svg" width="119.464" height="119.464" viewBox="0 0 119.464 119.464">
  <path id="Path_11" data-name="Path 11" d="M35.4,21.348h-.012l-3.417-5.913ZM61.608,7.486H57.841v6.845l3.767-.012ZM119.464,59.74A59.732,59.732,0,1,1,59.724,0,59.8,59.8,0,0,1,119.464,59.74Zm-3.767,0A55.965,55.965,0,1,0,59.724,115.7,56.047,56.047,0,0,0,115.7,59.74Zm-51.525.414c.012-.139.024-.275.024-.414A4.446,4.446,0,0,0,61.608,55.7V27.162H57.841V55.694A4.466,4.466,0,1,0,62.285,63.4l17.079,9.983,1.9-3.253L64.168,60.15Zm-32.2-44.72,3.417,5.913H35.4l-3.429-5.913Zm-16.55,16.55L13.539,35.25l5.925,3.417L21.336,35.4l-5.913-3.417ZM35.238,13.551l-3.265,1.884L35.4,21.348l3.253-1.884Zm22.6-6.065v6.845l3.767-.012V7.486Zm26.374,6.065L80.8,19.465l3.265,1.884,3.417-5.913-3.265-1.884ZM104.03,31.985,98.116,35.4,100,38.667l5.913-3.417-1.884-3.265Zm7.936,25.868h-6.833l.012,3.767h6.833ZM100,80.81l-1.884,3.265,5.913,3.417,1.884-3.265L100,80.81ZM57.841,105.149v6.833h3.767v-6.833ZM35.385,98.116l-3.417,5.925,3.265,1.884L38.651,100ZM19.449,80.81l-5.913,3.417,1.884,3.265,5.913-3.429ZM7.482,57.853V61.62h6.833V57.853H7.486ZM84.063,98.128,80.8,100.012l3.417,5.913,3.265-1.884-3.417-5.913Z" fill="#172243"/>
</svg>
