<svg xmlns="http://www.w3.org/2000/svg" width="16.186" height="16.186" viewBox="0 0 16.186 16.186">
  <path id="Icon_metro-facebook" data-name="Icon metro-facebook" d="M16.059,1.928H5.268a2.7,2.7,0,0,0-2.7,2.7v10.79a2.7,2.7,0,0,0,2.7,2.7h5.4V11.032H8.64V9.009h2.023V7.492a2.529,2.529,0,0,1,2.529-2.529h2.529V6.986H13.193a.506.506,0,0,0-.506.506V9.009h2.782l-.506,2.023H12.687v7.081h3.372a2.7,2.7,0,0,0,2.7-2.7V4.626a2.7,2.7,0,0,0-2.7-2.7Z" transform="translate(-2.571 -1.928)" fill="#bab2a7"/>
</svg>
