<svg xmlns="http://www.w3.org/2000/svg" xmlns:xlink="http://www.w3.org/1999/xlink" width="47" height="45" viewBox="0 0 47 45">
  <defs>
    <clipPath id="clip-path">
      <rect id="Rectangle_36" data-name="Rectangle 36" width="47" height="45" transform="translate(-0.302)" fill="#5e5946"/>
    </clipPath>
  </defs>
  <g id="Mask_Group_14" data-name="Mask Group 14" transform="translate(0.302)" clip-path="url(#clip-path)">
    <g id="Layer_1" data-name="Layer 1" transform="translate(0.905)">
      <path id="Path_18" data-name="Path 18" d="M22.625,0A22.625,22.625,0,1,0,45.25,22.622,22.649,22.649,0,0,0,22.625,0ZM1.882,22.622A20.736,20.736,0,0,1,40.476,12.079l-9.3,4.938a11.692,11.692,0,0,0,.335-2.377l.63-.608a.659.659,0,0,0-.919-.946l-.635.612a9.611,9.611,0,0,0-6.261,2.339,6.6,6.6,0,0,0-.961,1.205l0-.311a9.6,9.6,0,0,0,3.045-5.9,9.646,9.646,0,0,0-2.439-6.275l-.084-.881A.657.657,0,1,0,22.587,4l.071.772a9.554,9.554,0,0,0-3.032,5.884c-.169,3,1.831,5.564,2.428,6.266l0,.32a6.8,6.8,0,0,0-.937-1.29,9.626,9.626,0,0,0-6.177-2.6h0l-.781-.753a.667.667,0,0,0-.932.018.657.657,0,0,0,.018.932l.757.726a9.587,9.587,0,0,0,2.133,6.308,8.342,8.342,0,0,0,4.082,2.264l-.537.282a10.68,10.68,0,0,0-4.665-1.545l-.386-.5a.66.66,0,1,0-1.045.805l.41.528v0a11.551,11.551,0,0,0,.433,3.5L3.884,31.509a20.653,20.653,0,0,1-2-8.887Zm28.284-7.578a9.722,9.722,0,0,1-.673,2.867l-6.134,3.263a7.525,7.525,0,0,1,1.9-4.2A8.081,8.081,0,0,1,30.167,15.044Zm-7.41.635a8.062,8.062,0,0,1-1.818-4.956A8.078,8.078,0,0,1,23.287,6,8.046,8.046,0,0,1,25.1,10.953,8.074,8.074,0,0,1,22.756,15.679Zm-2.772,9.409c.038.033.066.071.1.1a8.079,8.079,0,0,1,1.653,5.014,8.02,8.02,0,0,1-4.774-2.25,5.819,5.819,0,0,1-.65-.913l3.671-1.953Zm-4.368.193a10.287,10.287,0,0,1-.306-2.339,9.7,9.7,0,0,1,2.994.913l-2.688,1.427Zm5.564-.824.71-.377-.033,1.351A6.105,6.105,0,0,0,21.18,24.457Zm-4.086-4.778a8.045,8.045,0,0,1-1.771-4.971,8.044,8.044,0,0,1,4.825,2.137,8.054,8.054,0,0,1,1.771,4.971A8.011,8.011,0,0,1,17.094,19.679Zm5.531,23.687A20.735,20.735,0,0,1,4.774,33.17L15.15,27.658a6.7,6.7,0,0,0,.824,1.167,9.4,9.4,0,0,0,5.739,2.706l-.051,2.3a6.817,6.817,0,0,0-1.088-1.465,9.583,9.583,0,0,0-6.163-2.433l-.522-.706a.66.66,0,1,0-1.065.781l.588.795v0a9.624,9.624,0,0,0,2.3,6.317,9.387,9.387,0,0,0,5.809,2.41l-.056,2.428,1.318.029.056-2.428A9.363,9.363,0,0,0,28.8,37.434a9.58,9.58,0,0,0,2.59-6.137L32,30.633a.66.66,0,1,0-.965-.9l-.532.579h0a9.636,9.636,0,0,0-6.336,2.142,6.987,6.987,0,0,0-1.192,1.469l.056-2.41a9.4,9.4,0,0,0,5.9-2.344,9.508,9.508,0,0,0,2.368-6.1l.688-.584a.658.658,0,0,0-.848-1.008l-.6.508c-.726,0-4.181.137-6.412,2.364a6.634,6.634,0,0,0-.95,1.2l.051-2.184.4-.207a9.141,9.141,0,0,0,5.5-2.293,6.761,6.761,0,0,0,.9-1.106l11.35-6.026A20.74,20.74,0,0,1,22.622,43.367Zm-1.088-5.154a8.039,8.039,0,0,1-4.882-2,8.055,8.055,0,0,1-1.907-4.923,8.043,8.043,0,0,1,4.882,2.011,8.044,8.044,0,0,1,1.907,4.919Zm1.389.033a8.051,8.051,0,0,1,2.133-4.825,8.063,8.063,0,0,1,4.971-1.775A8.062,8.062,0,0,1,27.9,36.47a8.054,8.054,0,0,1-4.971,1.775Zm.169-8.059a8.04,8.04,0,0,1,1.958-4.9,8.068,8.068,0,0,1,4.905-1.949A8.086,8.086,0,0,1,28,28.237,8.088,8.088,0,0,1,23.1,30.186Z" fill="#5e5946"/>
    </g>
  </g>
</svg>
