<svg xmlns="http://www.w3.org/2000/svg" xmlns:xlink="http://www.w3.org/1999/xlink" width="134.92" height="133.437" viewBox="0 0 134.92 133.437">
  <defs>
    <clipPath id="clip-path">
      <rect id="Rectangle_40" data-name="Rectangle 40" width="134.92" height="133.437" transform="translate(0 0)" fill="#ccc"/>
    </clipPath>
  </defs>
  <g id="Mask_Group_18" data-name="Mask Group 18" clip-path="url(#clip-path)">
    <g id="Layer_1" data-name="Layer 1" transform="translate(0.687 7.043)">
      <path id="Path_22" data-name="Path 22" d="M131.624,23.456A38.073,38.073,0,0,0,96.485,0C85.753,0,76,8.5,69.6,14.9l-2.363,2.363L64.879,14.9C58.5,8.5,48.74,0,38.008,0A38.015,38.015,0,0,0,11.127,64.888l53.519,53.519a3.648,3.648,0,0,0,5.2,0l53.519-53.519a38.124,38.124,0,0,0,8.258-41.428ZM120.367,61.885,67.246,115,14.126,61.889A33.767,33.767,0,0,1,38.008,4.241c9.02,0,18.013,7.792,23.881,13.66l5.357,5.357L72.6,17.9c5.868-5.868,14.718-13.66,23.881-13.66a33.75,33.75,0,0,1,33.767,33.767,33.539,33.539,0,0,1-9.885,23.881Zm1.045-13.942a2.184,2.184,0,0,1-2.192,2.179H104.671L98.054,64.332a2.19,2.19,0,0,1-4.156-.619l-3.452-24.5L86.192,66.157a2.183,2.183,0,0,1-4.241.309L76.818,50.121H67.883L57.137,72.433a2.186,2.186,0,0,1-4.129-.65L48.243,36.847l-9.047,41a2.164,2.164,0,0,1-2.121,1.713h-.027a2.164,2.164,0,0,1-2.121-1.753l-5.6-27.683H16a2.186,2.186,0,0,1,0-4.371h15.13a2.179,2.179,0,0,1,2.134,1.753l3.9,19.3L46.62,23.922a2.194,2.194,0,0,1,4.313.166l5.429,39.886,8.173-17a2.2,2.2,0,0,1,1.982-1.228H78.436a2.189,2.189,0,0,1,2.08,1.529l2.829,8.98L88.42,24.047a2.188,2.188,0,0,1,2.165-1.838H90.6a2.173,2.173,0,0,1,2.147,1.878L97.216,55.8l4.1-8.8a2.19,2.19,0,0,1,1.982-1.26h15.933a2.187,2.187,0,0,1,2.192,2.192Z" transform="translate(0 0)"/>
    </g>
  </g>
</svg>
