<svg xmlns="http://www.w3.org/2000/svg" width="16.189" height="16.186" viewBox="0 0 16.189 16.186">
  <path id="Icon_awesome-instagram" data-name="Icon awesome-instagram" d="M8.091,6.181a4.15,4.15,0,1,0,4.15,4.15A4.143,4.143,0,0,0,8.091,6.181Zm0,6.848a2.7,2.7,0,1,1,2.7-2.7A2.7,2.7,0,0,1,8.091,13.028Zm5.287-7.017a.968.968,0,1,1-.968-.968A.966.966,0,0,1,13.379,6.011Zm2.748.982A4.79,4.79,0,0,0,14.82,3.6a4.822,4.822,0,0,0-3.391-1.307c-1.336-.076-5.342-.076-6.678,0A4.815,4.815,0,0,0,1.359,3.6,4.806,4.806,0,0,0,.052,6.99c-.076,1.336-.076,5.342,0,6.678a4.79,4.79,0,0,0,1.307,3.391A4.828,4.828,0,0,0,4.75,18.366c1.336.076,5.342.076,6.678,0a4.79,4.79,0,0,0,3.391-1.307,4.822,4.822,0,0,0,1.307-3.391c.076-1.336.076-5.338,0-6.674ZM14.4,15.1a2.731,2.731,0,0,1-1.539,1.539c-1.065.423-3.594.325-4.771.325s-3.709.094-4.771-.325A2.731,2.731,0,0,1,1.782,15.1c-.423-1.065-.325-3.594-.325-4.771s-.094-3.709.325-4.771A2.731,2.731,0,0,1,3.32,4.021C4.386,3.6,6.914,3.7,8.091,3.7s3.709-.094,4.771.325A2.731,2.731,0,0,1,14.4,5.56c.423,1.065.325,3.594.325,4.771S14.823,14.04,14.4,15.1Z" transform="translate(0.005 -2.238)" fill="#bab2a7"/>
</svg>
