<svg xmlns="http://www.w3.org/2000/svg" xmlns:xlink="http://www.w3.org/1999/xlink" width="46" height="45" viewBox="0 0 46 45">
  <defs>
    <clipPath id="clip-path">
      <rect id="Rectangle_37" data-name="Rectangle 37" width="46" height="45" transform="translate(0.048)" fill="#5e5946"/>
    </clipPath>
  </defs>
  <g id="Mask_Group_15" data-name="Mask Group 15" transform="translate(-0.048)" clip-path="url(#clip-path)">
    <g id="Layer_1" data-name="Layer 1" transform="translate(3.085)">
      <path id="Path_19" data-name="Path 19" d="M39.575,13.661A8.614,8.614,0,0,0,35.531,8.21a7.861,7.861,0,0,0-6-.333A11.177,11.177,0,0,0,24.2,11.744C22.224,7.1,18.465,0,13.961,0A6.757,6.757,0,0,0,9.232,2.459c-3.762,3.905-6.611,11.745-7,13.21h0c-.081.243-2.008,6.017-2.008,8.552a12.848,12.848,0,0,0,1.56,6.155A9.372,9.372,0,0,0,16.109,42.391a2.9,2.9,0,0,0,.947.78,2.982,2.982,0,0,0,2.816-.124,2.859,2.859,0,0,0,.866.685,2.779,2.779,0,0,0,1.237.3,2.587,2.587,0,0,0,.713-.1,2.375,2.375,0,0,0,1.6-3.148,2.648,2.648,0,0,0-.775-1.1l2.56-5.032c5.142-1.584,10.27-7.311,12.6-12.1a12.986,12.986,0,0,0,.9-8.886ZM1.65,24.221c0-2.3,1.913-8.044,1.931-8.1L3.623,16v-.038C4.029,14.432,8.837,1.427,13.961,1.427c3.7,0,7.315,6.9,9.27,11.706-.214.357-.419.722-.614,1.109a29.156,29.156,0,0,0-2.388,8.815,14.359,14.359,0,0,0-1.575-4.8c-1.261-2.345-2.858-3.653-4.5-3.691h-.062c-1.621,0-3.249,1.241-4.585,3.505a13.479,13.479,0,0,0-1.893,5.965A6.232,6.232,0,0,0,8.1,26.581,9.361,9.361,0,0,0,2.789,29.2a11.416,11.416,0,0,1-1.137-4.98Zm16.7,4.514A6.283,6.283,0,0,0,19.777,26.7a6.009,6.009,0,0,0,.281-.775A17.376,17.376,0,0,0,21.071,32.3l-1.195,2.345a12.041,12.041,0,0,1-1.146.537,9.318,9.318,0,0,0-2.1-5.266,6.312,6.312,0,0,0,1.727-1.184Zm-2.5.351a9.361,9.361,0,0,0-6.474-2.6c-.053,0-.1,0-.152,0a5.254,5.254,0,0,1-.543-2.445,12.48,12.48,0,0,1,1.745-5.438c1.122-1.9,2.454-2.982,3.662-2.982h.042c1.217.024,2.52,1.166,3.576,3.13a12.428,12.428,0,0,1,1.522,5.5,5.274,5.274,0,0,1-3.382,4.822Zm1.009,9.466v0a7.455,7.455,0,0,1-.627,1.336,7.945,7.945,0,0,1-6.855,3.929,7.962,7.962,0,0,1-7.953-7.953,7.869,7.869,0,0,1,1.184-4.161,6.725,6.725,0,0,1,.424-.627c.152-.2.309-.391.481-.576a7.918,7.918,0,0,1,5.347-2.569c.17-.014.342-.02.519-.02.053,0,.1,0,.157,0a6.1,6.1,0,0,1,.78.053,7.845,7.845,0,0,1,3.72,1.456,6.729,6.729,0,0,1,.618.495,6.554,6.554,0,0,1,.49.471,7.931,7.931,0,0,1,2.183,5.261c0,.071,0,.143,0,.214,0,.181,0,.357-.02.532a6.226,6.226,0,0,1-.086.756c-.009.057-.02.115-.033.172a7.129,7.129,0,0,1-.333,1.222Zm4.757,1.712.713.329a1.3,1.3,0,0,1,.623.685,1.147,1.147,0,0,1,.066.371.913.913,0,0,1-.1.419.969.969,0,0,1-.618.49,1.263,1.263,0,0,1-.919-.1,1.282,1.282,0,0,1-.632-.694l-.376-1.036-.79.766a1.636,1.636,0,0,1-1.884.4,1.413,1.413,0,0,1-.638-.661,9.27,9.27,0,0,0,1.365-2.911,1.468,1.468,0,0,1,.643-.033l.514.075,1.365-2.688.632-1.241.5-.985c.133.081.281.172.442.261.186.1.4.214.632.333.014.009.029.014.042.024a10.162,10.162,0,0,0,1.261.594l-2.845,5.6ZM37.382,21.942c-1.992,4.1-6.174,8.852-10.337,10.8a9.354,9.354,0,0,1-1.018.419,6.486,6.486,0,0,1-.8.247.5.5,0,0,1-.115-.024,5.452,5.452,0,0,1-.846-.371c-.128-.066-.276-.143-.442-.234l-.02-.009-.186-.091c-.281-.148-.495-.267-.656-.362-.09-.057-.166-.1-.228-.148a1.959,1.959,0,0,1-.267-.21c-.066-.157-.128-.318-.181-.48-.115-.323-.214-.652-.3-.994-1.2-4.7-.081-11.364,1.913-15.625.143-.281.29-.557.446-.818s.309-.519.481-.756a10.061,10.061,0,0,1,5.137-4.053,6.447,6.447,0,0,1,4.9.238c2.655,1.385,5.285,6.312,2.511,12.468ZM12.7,20.124a5.3,5.3,0,0,0-.627,1.042,4.976,4.976,0,0,0-.409,2.726,4.849,4.849,0,0,0,.3,1.146.539.539,0,0,1-.3.694.55.55,0,0,1-.195.033.531.531,0,0,1-.5-.342,6.024,6.024,0,0,1-.409-2.465,6.171,6.171,0,0,1,1.3-3.487.534.534,0,0,1,.846.652Zm15.54,9.427c-.081-.09-.157-.19-.228-.285a10.229,10.229,0,0,1-.866-1.3v0a.225.225,0,0,1-.02-.038l0,0c-.038-.066-.071-.128-.1-.19-.133-.256-.247-.5-.347-.742-.02-.042-.033-.081-.048-.119h0a13.122,13.122,0,0,1-.428-1.25c-.02-.053-.033-.1-.048-.157-.128-.433-.214-.8-.271-1.065.1.133.234.314.385.523.057.081.119.172.186.267.143.214.29.433.433.661a10.211,10.211,0,0,1,.561.974v0a5.375,5.375,0,0,1,.271.594c.048.115.1.238.137.362.057.172.124.376.181.6.047.181.1.38.133.6v.009c.033.176.057.367.081.566Zm1.851-5.789c-.17.075-.808-.98-1.374-1.913a13.687,13.687,0,0,1-.808-1.446,8.3,8.3,0,0,1-.694-2.878,13.018,13.018,0,0,1,1.546,2.231,14.133,14.133,0,0,1,.8,1.778c.267.729.718,2.14.532,2.226Zm3.32-6.027a13.121,13.121,0,0,1-2.92-3.6,12.376,12.376,0,0,1-.919-2.183,6.215,6.215,0,0,1,1.442,1.094A7.992,7.992,0,0,1,32.489,15.4a17.493,17.493,0,0,1,.923,2.335ZM13.67,40.689H10.949L7.876,36.651v4.038H5.65V31.547H7.876v4.009l.1-.133.442-.585,2.5-3.291H13.54l-3.2,4.044L10,36.028l.21.267.727.923,2.735,3.472Z" transform="translate(0.002)" fill="#5e5946"/>
    </g>
  </g>
</svg>
