<svg xmlns="http://www.w3.org/2000/svg" width="20" height="28.147" viewBox="0 0 20 28.147">
  <g id="Layer_1" data-name="Layer 1" transform="translate(0)">
    <path id="Path_23" data-name="Path 23" d="M6.349,24.418a7.642,7.642,0,0,0,3.734,3.436,7.656,7.656,0,0,0,5.055-.4,7.674,7.674,0,0,0-3.73-3.439A7.662,7.662,0,0,0,6.349,24.418Zm9.51-2.493a7.667,7.667,0,0,1,3.533-3.644,7.641,7.641,0,0,1,.267,5.069,7.639,7.639,0,0,1-3.533,3.64,7.678,7.678,0,0,1-.267-5.065ZM8.359,17.1a7.669,7.669,0,0,1,3.605,3.571,7.694,7.694,0,0,1-5.069.219A7.652,7.652,0,0,1,3.29,17.317,7.668,7.668,0,0,1,8.359,17.1Zm4.071-1.89A7.665,7.665,0,0,1,15.775,11.4,7.652,7.652,0,0,1,16.3,16.44a7.648,7.648,0,0,1-3.346,3.814,7.652,7.652,0,0,1-.524-5.045Zm-7.368-5.1a7.626,7.626,0,0,1,3.62,3.554,7.665,7.665,0,0,1-5.065.239A7.687,7.687,0,0,1-.007,10.345a7.654,7.654,0,0,1,5.069-.239ZM9.236,8.133A7.663,7.663,0,0,1,12.672,4.4a7.647,7.647,0,0,1,.4,5.059,7.617,7.617,0,0,1-3.436,3.734,7.686,7.686,0,0,1-.4-5.059ZM2.514-.009A7.64,7.64,0,0,1,6.432,3.212a7.659,7.659,0,0,1,.3,5.065A7.671,7.671,0,0,1,2.815,5.052a7.671,7.671,0,0,1-.3-5.062Z" transform="translate(0.007 0.01)" fill="#5e5946"/>
  </g>
</svg>
