<svg xmlns="http://www.w3.org/2000/svg" width="23.755" height="26.099" viewBox="0 0 23.755 26.099">
  <path id="Icon_awesome-canadian-maple-leaf" data-name="Icon awesome-canadian-maple-leaf" d="M20.009,17.928c.127-.127,5.363-4.71,5.363-4.71l-.892-.382c-.51-.25-.377-.586-.255-.887.122-.387,1.025-3.431,1.025-3.431s-2.432.51-2.941.637c-.382.122-.51-.127-.637-.382s-.765-1.652-.765-1.652S18.225,10.175,18.1,10.3c-.51.382-1.025,0-.9-.51,0-.51,1.407-6.606,1.407-6.606s-1.534.887-2.044,1.142c-.382.255-.642.255-.9-.255C15.406,3.686,13.489,0,13.489,0s-1.912,3.686-2.166,4.068c-.255.51-.51.51-.9.255-.51-.255-2.044-1.142-2.044-1.142s1.407,6.1,1.407,6.606c.127.51-.382.892-.9.51-.127-.127-2.809-3.176-2.809-3.176s-.637,1.392-.765,1.647-.255.5-.637.382c-.515-.127-2.941-.637-2.941-.637s.9,3.043,1.025,3.431c.122.306.255.637-.255.887l-.892.387s5.23,4.583,5.363,4.71c.26.255.51.382.26,1.147s-.515,1.789-.515,1.789,4.853-1.025,5.368-1.152c.443-.046.933.127.933.637s-.3,5.75-.3,5.75h1.529s-.3-5.235-.3-5.75.484-.683.938-.637c.51.127,5.363,1.152,5.363,1.152s-.255-1.025-.51-1.789,0-.892.255-1.147Z" transform="translate(-1.617)" fill="#fbf6f3"/>
</svg>
