<svg xmlns="http://www.w3.org/2000/svg" xmlns:xlink="http://www.w3.org/1999/xlink" width="134.92" height="133.437" viewBox="0 0 134.92 133.437">
  <defs>
    <clipPath id="clip-path">
      <rect id="Rectangle_38" data-name="Rectangle 38" width="134.92" height="133.437" transform="translate(0 0)" fill="#ccc"/>
    </clipPath>
  </defs>
  <g id="Mask_Group_16" data-name="Mask Group 16" transform="translate(0)" clip-path="url(#clip-path)">
    <g id="Layer_1" data-name="Layer 1" transform="translate(8.508 0.145)">
      <path id="Path_20" data-name="Path 20" d="M85.5,96.441,83.93,98.178c-6.838,7.607-14.924,11.294-24.7,11.294-19.616,0-31.79-16.479-31.79-43.018S40.059,24,59.608,24c8.562,0,15.6,2.955,22.14,9.317l1.6,1.542L98.019,17.866,96.77,16.493A50.878,50.878,0,0,0,59.226,0C24.352,0,0,27.56,0,67.033s23.415,66.259,58.275,66.259c16.533,0,29.942-6.149,40.983-18.8l1.235-1.4L85.5,96.446ZM58.275,129.089C25.939,129.089,4.2,104.15,4.2,67.033S26.832,4.2,59.226,4.2A46.637,46.637,0,0,1,92.363,17.977l-9.317,10.8A33.764,33.764,0,0,0,59.6,19.8c-21.758,0-36.375,18.763-36.375,46.657s13.787,47.221,36,47.221a35.906,35.906,0,0,0,26.232-11l9.4,10.423C84.9,123.859,72.9,129.084,58.275,129.084Zm58.96-59.422L101.08,90.083a2.455,2.455,0,0,1-3.839,0L81.073,69.765a2.454,2.454,0,0,1,3.839-3.057L99.147,84.614,113.4,66.624a2.449,2.449,0,1,1,3.839,3.044Zm0-24.757-16.155,20.4a2.462,2.462,0,0,1-1.919.937,2.491,2.491,0,0,1-1.919-.924L81.073,45.008a2.454,2.454,0,0,1,3.839-3.057L99.147,59.844,113.4,41.867a2.449,2.449,0,1,1,3.839,3.044Z"/>
    </g>
  </g>
</svg>
