<svg xmlns="http://www.w3.org/2000/svg" xmlns:xlink="http://www.w3.org/1999/xlink" width="46" height="45" viewBox="0 0 46 45">
  <defs>
    <clipPath id="clip-path">
      <rect id="Rectangle_40" data-name="Rectangle 40" width="46" height="45" transform="translate(0.155)" fill="#5e5946"/>
    </clipPath>
  </defs>
  <g id="Mask_Group_13" data-name="Mask Group 13" transform="translate(-0.155)" clip-path="url(#clip-path)">
    <g id="Layer_1" data-name="Layer 1" transform="translate(0.54 0)">
      <path id="Path_17" data-name="Path 17" d="M45.052,15.414a.7.7,0,0,0-.876-.475l-1.051.315c-1-.5-4.528-2.039-7.92-.985a8.12,8.12,0,0,0-1.937.9l.348-.637c1.131-.326,4.7-1.555,6.483-4.57,1.842-3.115,1.1-6.978.857-7.991l.41-1A.707.707,0,0,0,40.057.44l-.357.885C38.554,1.661,35,2.894,33.221,5.9c-1.837,3.1-1.1,6.958-.857,7.981l-.348.632a8.057,8.057,0,0,0-.288-2.172C30.776,8.893,27.535,6.748,26.6,6.2l-.433-1.272a.707.707,0,0,0-1.338.457l.419,1.225v0c-.551,1.027-2.163,4.462-1.225,7.854.852,3.091,3.543,5.131,4.763,5.922l-1.5,2.738a8.077,8.077,0,0,0-.235-1.9C26.2,17.8,23.089,15.6,22.12,14.984l-.137-.777a.708.708,0,0,0-1.394.249l.151.83c-.541.943-2.309,4.4-1.437,7.878a8.856,8.856,0,0,0,1.62,3.241h-.094c-.169,0-.335,0-.5,0a13.452,13.452,0,0,0-3.463-2.851l-.169-1.078a.706.706,0,1,0-1.394.222l.189,1.192a13.691,13.691,0,0,0-1.116,3.124A28.116,28.116,0,0,0,10.225,28.2a17.088,17.088,0,0,0-7.2,4.4c-1.119,1.22-3.2,3.486-3.014,6.6a6.5,6.5,0,0,0,2.186,4.6A7.579,7.579,0,0,0,6.367,45.2c.306.029.612.047.919.047s.6-.018.894-.047c1.857-.169,5.819-.169,11.783,0l.857.009.857-.009c5.95-.169,9.908-.169,11.763,0a8.759,8.759,0,0,0,1.833,0,7.5,7.5,0,0,0,4.151-1.413,6.534,6.534,0,0,0,2.19-4.593v0c.184-3.11-1.9-5.376-3.015-6.6a14.063,14.063,0,0,0-3.8-2.926A12.742,12.742,0,0,0,38.683,25.4l.965-.075a.706.706,0,1,0-.1-1.409L38.39,24c-.885-.448-4.517-2.088-8-.989a8.176,8.176,0,0,0-1.928.91l1.555-2.827a12.846,12.846,0,0,0,5.074,1.169,8.264,8.264,0,0,0,2.487-.362c3.388-1.051,5.413-4.306,5.959-5.291l1.041-.311a.707.707,0,0,0,.471-.881Zm-10.61-8.8a9.787,9.787,0,0,1,5.243-3.8,9.8,9.8,0,0,1-.8,6.425,9.82,9.82,0,0,1-5.249,3.8,9.823,9.823,0,0,1,.805-6.432Zm-13.771,16.2a9.789,9.789,0,0,1,1.06-6.394,9.822,9.822,0,0,1,3.949,5.14c.033.131.062.264.084.4.014.084.029.169.038.255a3.974,3.974,0,0,1,.051.481l.014.2a7.623,7.623,0,0,1-.018.852c0,.113-.014.222-.029.33-.014.131-.033.264-.051.391a9.56,9.56,0,0,1-.268,1.234c-.047.169-.094.33-.151.49s-.1.311-.16.457c-.777-.1-1.56-.175-2.347-.213-.127-.127-.255-.259-.377-.406-.1-.113-.2-.226-.293-.344-.056-.066-.109-.131-.16-.2l-.155-.213a2.342,2.342,0,0,1-.146-.207c-.051-.071-.1-.146-.142-.217-.131-.2-.25-.41-.364-.621-.014-.038-.033-.066-.047-.1a2.03,2.03,0,0,1-.118-.255c-.038-.084-.075-.169-.109-.255a5.925,5.925,0,0,1-.264-.8ZM16.521,25a12.657,12.657,0,0,1,1.9,1.46q-1.278.084-2.529.273A12.91,12.91,0,0,1,16.521,25Zm21.041,8.546c1.045,1.14,2.793,3.044,2.643,5.555a5.1,5.1,0,0,1-1.664,3.585,6.222,6.222,0,0,1-3.416,1.107,7.833,7.833,0,0,1-1.551,0c-1.941-.179-5.842-.179-11.925,0l-.83.009-.83,0c-6.092-.179-10-.179-11.947,0a7.921,7.921,0,0,1-1.56,0,6.2,6.2,0,0,1-3.4-1.107A5.061,5.061,0,0,1,1.422,39.1c-.155-2.511,1.6-4.415,2.643-5.555a14.633,14.633,0,0,1,5.913-3.754v4.89a.707.707,0,0,0,1.415,0v-5.4a26.692,26.692,0,0,1,2.733-.777c.481-.109.965-.2,1.456-.288.311-.051.626-.1.943-.142v9.975a.707.707,0,1,0,1.415,0V27.916c.566-.047,1.136-.075,1.71-.089.235,0,.475-.009.716-.009h.462c.164,0,.335,0,.5,0,.3,0,.6,0,.9.018.348.009.7.029,1.041.051v6.8a.279.279,0,0,0,.009.089.7.7,0,0,0,1.4-.09V28.013c.5.056.994.131,1.484.217a27.225,27.225,0,0,1,2.771.637.639.639,0,0,0-.056.268v3.241a.677.677,0,0,0,.169.452.691.691,0,0,0,.537.255.674.674,0,0,0,.373-.109.7.7,0,0,0,.335-.6V29.29l.626.226c.029.009.062.024.089.033h0c.7.264,1.451.546,2.238.914a13.137,13.137,0,0,1,4.311,3.082Zm-8.593-8.264c.071-.051.146-.1.222-.151s.179-.113.268-.164c.056-.033.113-.066.169-.094a0,0,0,0,1,0,0c.009,0,.02-.014.024-.014a.912.912,0,0,1,.137-.071c.062-.033.122-.062.184-.094.084-.042.169-.08.259-.118a.423.423,0,0,1,.08-.033.6.6,0,0,1,.08-.033c.137-.056.278-.1.419-.151a9.813,9.813,0,0,1,6.445.674c-.051.089-.113.184-.179.282-.047.071-.1.146-.151.222-.094.142-.2.293-.32.448-.024.029-.047.062-.071.094-.142.189-.3.386-.471.584-.089.1-.179.207-.278.311a9.4,9.4,0,0,1-.956.914c-.1.089-.2.169-.311.25s-.24.179-.368.264c-.089.062-.179.118-.273.175s-.169.1-.259.155-.213.118-.32.169a.2.2,0,0,1-.047.024c-.659-.282-1.282-.513-1.846-.726a28.578,28.578,0,0,0-4.293-1.22c.084-.1.175-.2.273-.306.075-.084.155-.169.244-.255s.169-.169.259-.255a3.771,3.771,0,0,1,.282-.255,1.037,1.037,0,0,1,.142-.122c.042-.038.089-.075.142-.118a5.077,5.077,0,0,1,.508-.382Zm.49-6.148a9.791,9.791,0,0,1-4.071-5.045,9.816,9.816,0,0,1,.91-6.416,9.794,9.794,0,0,1,4.071,5.045,9.85,9.85,0,0,1-.91,6.416Zm7.7,1.413a9.788,9.788,0,0,1-6.445-.7,9.867,9.867,0,0,1,4.91-4.231,9.851,9.851,0,0,1,6.441.7,9.8,9.8,0,0,1-4.905,4.231Zm-27.4.748a.706.706,0,0,1-.554-.267l-4.089-5.14a.706.706,0,0,1,1.106-.879l3.534,4.444L13.3,14.988a.706.706,0,1,1,1.107.878l-4.089,5.163a.708.708,0,0,1-.554.268h0Zm0-6.266a.706.706,0,0,1-.554-.267L5.124,9.623a.706.706,0,0,1,1.106-.879l3.534,4.444L13.3,8.723a.706.706,0,0,1,1.107.878l-4.089,5.163a.708.708,0,0,1-.554.268h0Z" transform="translate(0 0)" fill="#5e5946"/>
    </g>
  </g>
</svg>
