<svg xmlns="http://www.w3.org/2000/svg" xmlns:xlink="http://www.w3.org/1999/xlink" width="46" height="45" viewBox="0 0 46 45">
  <defs>
    <clipPath id="clip-path">
      <rect id="Rectangle_41" data-name="Rectangle 41" width="46" height="45" transform="translate(0.314)" fill="#5e5946"/>
    </clipPath>
  </defs>
  <g id="Mask_Group_12" data-name="Mask Group 12" transform="translate(-0.314)" clip-path="url(#clip-path)">
    <g id="Layer_1" data-name="Layer 1" transform="translate(0.452)">
      <path id="Path_16" data-name="Path 16" d="M13.409,8.086h0L12.11,5.846Zm9.926-5.25H21.908V5.428l1.427,0ZM45.25,22.628A22.625,22.625,0,1,1,22.622,0,22.652,22.652,0,0,1,45.25,22.628Zm-1.427,0a21.2,21.2,0,1,0-21.2,21.195A21.229,21.229,0,0,0,43.823,22.628Zm-19.516.157c0-.053.009-.1.009-.157a1.684,1.684,0,0,0-.98-1.531V10.288H21.908V21.1a1.692,1.692,0,1,0,1.683,2.92L30.061,27.8l.718-1.232-6.474-3.781ZM12.11,5.846,13.4,8.086h0l-1.3-2.24ZM5.842,12.115l-.713,1.237,2.244,1.294.709-1.237-2.24-1.294Zm7.505-6.982-1.237.713,1.3,2.24,1.232-.713Zm8.561-2.3V5.428l1.427,0V2.836Zm9.99,2.3L30.6,7.373l1.237.713,1.294-2.24L31.9,5.133ZM39.4,12.115l-2.24,1.294.713,1.237,2.24-1.294L39.4,12.115Zm3.006,9.8H39.821l0,1.427h2.588Zm-4.533,8.7-.713,1.237,2.24,1.294.713-1.237-2.24-1.294ZM21.908,39.827v2.588h1.427V39.827ZM13.4,37.164l-1.294,2.244,1.237.713,1.294-2.244L13.4,37.164ZM7.367,30.608,5.127,31.9l.713,1.237,2.24-1.3Zm-4.533-8.7V23.34H5.422V21.913H2.836ZM31.841,37.168l-1.237.713,1.294,2.24,1.237-.713Z" fill="#5e5946"/>
    </g>
  </g>
</svg>
