<svg xmlns="http://www.w3.org/2000/svg" width="19.704" height="22.517" viewBox="0 0 19.704 22.517">
  <path id="Icon_awesome-snowflake" data-name="Icon awesome-snowflake" d="M19.363,15.181l-1.486-.858,1.143-.308a.68.68,0,0,0,.479-.831l-.176-.655a.68.68,0,0,0-.831-.479l-3.114.836-2.81-1.627,2.806-1.623,3.114.836a.68.68,0,0,0,.831-.479l.176-.655a.68.68,0,0,0-.479-.831L17.872,8.2l1.486-.858a.682.682,0,0,0,.251-.928l-.682-1.179A.682.682,0,0,0,18,4.983l-1.486.858L16.821,4.7a.68.68,0,0,0-.479-.831l-.655-.176a.68.68,0,0,0-.831.479l-.836,3.114L11.257,8.875V5.466L13.619,3.1a.706.706,0,0,0,0-.994l-.5-.5a.706.706,0,0,0-.994,0l-.871.866V.7a.706.706,0,0,0-.7-.7H9.147a.706.706,0,0,0-.7.7V2.48l-.866-.866a.706.706,0,0,0-.994,0l-.5.5a.7.7,0,0,0,0,.994L8.443,5.466V8.875L5.681,7.283,4.845,4.169a.68.68,0,0,0-.831-.479l-.655.176A.68.68,0,0,0,2.88,4.7L3.188,5.84,1.7,4.983a.678.678,0,0,0-.928.251L.091,6.408a.678.678,0,0,0,.251.928l1.486.858L.685,8.5A.682.682,0,0,0,.2,9.337l.176.655a.68.68,0,0,0,.831.479l3.114-.836,2.806,1.623L4.322,12.881l-3.114-.836a.68.68,0,0,0-.831.479L.2,13.18a.68.68,0,0,0,.479.831l1.143.308-1.486.862a.682.682,0,0,0-.251.928l.682,1.179a.682.682,0,0,0,.928.251l1.486-.858-.308,1.143a.68.68,0,0,0,.479.831l.655.176a.68.68,0,0,0,.831-.479l.836-3.114,2.762-1.592v3.408L6.077,19.416a.7.7,0,0,0,0,.994l.5.5a.706.706,0,0,0,.994,0l.866-.866v1.772a.706.706,0,0,0,.7.7h1.407a.706.706,0,0,0,.7-.7V20.036l.866.866a.706.706,0,0,0,.994,0l.5-.5a.706.706,0,0,0,0-.994L11.257,17.05V13.642l2.762,1.592.836,3.114a.68.68,0,0,0,.831.479l.655-.176a.68.68,0,0,0,.479-.831l-.308-1.143L18,17.534a.678.678,0,0,0,.928-.251l.682-1.179A.672.672,0,0,0,19.363,15.181Z" transform="translate(0.002)" fill="#172243"/>
</svg>
