<svg xmlns="http://www.w3.org/2000/svg" width="137.492" height="137.499" viewBox="0 0 137.492 137.499">
  <path id="Icon_awesome-sun" data-name="Icon awesome-sun" d="M68.749,42.968A25.781,25.781,0,1,0,94.53,68.749,25.822,25.822,0,0,0,68.749,42.968Zm66.171,21.618-25.432-12.7,9-26.963A4.643,4.643,0,0,0,112.6,19.04l-26.963,9L72.912,2.578a4.649,4.649,0,0,0-8.325,0L51.884,28.01l-26.99-9a4.643,4.643,0,0,0-5.881,5.881l9,26.963L2.578,64.587a4.649,4.649,0,0,0,0,8.325l25.432,12.7-9,26.99a4.643,4.643,0,0,0,5.881,5.881l26.963-9,12.7,25.432a4.649,4.649,0,0,0,8.325,0l12.7-25.432,26.963,9a4.643,4.643,0,0,0,5.881-5.881l-9-26.963,25.432-12.7a4.655,4.655,0,0,0,.054-8.352ZM93.053,93.053a34.371,34.371,0,1,1,0-48.608A34.411,34.411,0,0,1,93.053,93.053Z" fill="#172243"/>
</svg>
