<svg xmlns="http://www.w3.org/2000/svg" width="24.257" height="24.258" viewBox="0 0 24.257 24.258">
  <path id="Icon_awesome-sun" data-name="Icon awesome-sun" d="M12.129,7.581a4.548,4.548,0,1,0,4.548,4.548A4.556,4.556,0,0,0,12.129,7.581ZM23.8,11.395,19.317,9.154,20.9,4.4a.819.819,0,0,0-1.038-1.038L15.109,4.946,12.864.455a.82.82,0,0,0-1.469,0L9.154,4.942,4.392,3.354A.819.819,0,0,0,3.354,4.392L4.942,9.149.455,11.395a.82.82,0,0,0,0,1.469L4.942,15.1,3.354,19.866A.819.819,0,0,0,4.392,20.9l4.757-1.587L11.39,23.8a.82.82,0,0,0,1.469,0L15.1,19.317,19.857,20.9a.819.819,0,0,0,1.038-1.038l-1.587-4.757,4.487-2.241a.821.821,0,0,0,.009-1.474Zm-7.386,5.022a6.064,6.064,0,1,1,0-8.576A6.071,6.071,0,0,1,16.417,16.417Z" fill="#fbf6f3"/>
</svg>
