<svg xmlns="http://www.w3.org/2000/svg" xmlns:xlink="http://www.w3.org/1999/xlink" width="134.92" height="133.437" viewBox="0 0 134.92 133.437">
  <defs>
    <clipPath id="clip-path">
      <rect id="Rectangle_41" data-name="Rectangle 41" width="134.92" height="133.437" transform="translate(0 0)" fill="#ccc"/>
    </clipPath>
  </defs>
  <g id="Mask_Group_17" data-name="Mask Group 17" transform="translate(0)" clip-path="url(#clip-path)">
    <g id="Layer_1" data-name="Layer 1" transform="translate(-0.185 3.579)">
      <path id="Path_21" data-name="Path 21" d="M135.072,60.608a20.258,20.258,0,0,0-1.9-4.256c-1-1.841-1.642-2.863-2.162-3.7a19.8,19.8,0,0,1-1.447-2.6,17.988,17.988,0,0,1-1.4-3.849,16.165,16.165,0,0,1-.421-3.763,4.152,4.152,0,0,0,1.642-.9,4.569,4.569,0,0,0,1.588-3.13l.181-2.515a4.591,4.591,0,0,0-4.238-4.9l-16.867-1.235a4.6,4.6,0,0,0-4.917,4.229l-.181,2.515a4.588,4.588,0,0,0,1.108,3.329,4.428,4.428,0,0,0,1.307,1.04,23.228,23.228,0,0,1-.561,2.375,14.812,14.812,0,0,1-1.628,3.8c-.167.253-.434.62-.76,1.067-1.013,1.375-1.8,2.316-2.429,3.089l-.339.421a34.106,34.106,0,0,0-3.569,4.79c-4.211-1.9-9.887-.194-14.772,2.768-2.736-5.17-6.332-8.119-10.154-8.3a7.808,7.808,0,0,0-2.189.194,7.139,7.139,0,0,1,1.922-2.85c1.42-1.108,2.442-1.167,4.663-1.262a23.357,23.357,0,0,0,9.8-2.234c1.488-.7,9.1-4.65,12.95-12.791a23.009,23.009,0,0,0,2.049-8.214,53.94,53.94,0,0,1,1.475-8.341,67.472,67.472,0,0,1,2.836-8.512L109.539,0,102.153,1.1c-4.984.746-10.109,1.56-15.252,2.442C76.186,5.368,73.4,6.056,70.388,7.612A31.4,31.4,0,0,0,56.457,22.737a35.638,35.638,0,0,0-2.908,12.4c-.086,1.741-.127,6.052,1.248,8.467a5.129,5.129,0,0,0,1.42,1.588c-3.582,7.852-6.979,15.478-10.308,25.053l-.547,1.615c-.14-.561-.294-1.122-.448-1.7l-.054-.181c-6.206-23.158-9.313-34.787-15.645-44.7A73.369,73.369,0,0,0,8.25,4.056a5.229,5.229,0,0,0-2.963-.927A5.313,5.313,0,0,0,.556,6.092a5.188,5.188,0,0,0,.534,5.5A131.816,131.816,0,0,1,12.452,29.191c7.639,14.157,10.661,25.953,14.858,42.3l.127.507c2.976,11.6,4.591,20.67,7.526,37.157l.253,1.389c.66,3.75,1.221,7.02,1.714,9.987a7.06,7.06,0,0,0,13.131,2.275l58.027-.968-.014-1.167,7.667.688c.561.054,1.135.086,1.7.086a17.869,17.869,0,0,0,14.2-6.966l.394-.507,3.664-48.7v-.154a16.72,16.72,0,0,0-.62-4.51Zm-25.727-26.3a.351.351,0,0,1,.127-.253.3.3,0,0,1,.267-.086L126.605,35.2a.388.388,0,0,1,.353.394l-.181,2.515a.417.417,0,0,1-.14.253.328.328,0,0,1-.213.086h-.041L109.5,37.215h-.014a.4.4,0,0,1-.24-.127.467.467,0,0,1-.1-.267ZM85.065,63.1c3.049-1.909,6.4-3.257,9.028-3.257a4.983,4.983,0,0,1,2.556.606,1.18,1.18,0,0,1,.253.14,4.593,4.593,0,0,1,1.574,1.9v.014c1.294,2.7,1.221,7.106.339,11.235a28.105,28.105,0,0,1-.841,3.116c-.086.253-.167.493-.253.728a3.311,3.311,0,0,0-.339-.113c-.687-.24-1.375-.479-2.063-.7-1.909-.647-3.822-1.294-5.717-1.922-.855-.294-1.728-.574-2.6-.868a.96.96,0,0,0,.014-.194,28.466,28.466,0,0,0-1.954-10.661V63.1Zm-.927,14.352c.674.226,1.334.448,2.008.688.7.226,1.42.461,2.121.7,2.234.746,4.5,1.5,6.739,2.262.294.1.574.194.873.294.394.14.8.267,1.194.394a8.86,8.86,0,0,0,.841.294c.407.14.814.28,1.208.421.28.1.561.194.841.28a.932.932,0,0,0,.253.086l-.308.014-.814.014-1.728.027h-.38l-2.121.041h-.253l-11.529.181-3.175.054-.479.014h-.014l-2.755.041-1.389.027-1.135.014-4.93.086-4.663.072L61.4,83.5l-1.755.027c.127-.534.267-1.067.407-1.6.24-.914.479-1.841.715-2.768.308-1.108.606-2.221.927-3.356q.339-1.242.7-2.528a31.685,31.685,0,0,1,7.232-.873l2.456.887q1.011.36,2.022.715,1.031.36,2.063.715c1.968.688,3.962,1.361,5.97,2.035.66.226,1.334.448,1.995.674ZM89.81,87.684a2.3,2.3,0,0,1-.027.321,2.267,2.267,0,0,1-2.275,1.642,2.325,2.325,0,0,1-1.769-.66,1.626,1.626,0,0,1-.448-.76,1.2,1.2,0,0,1-.086-.448,1.269,1.269,0,0,1,.054-.448l4.478-.072a1.521,1.521,0,0,1,.072.421ZM72.776,55.09a.876.876,0,0,1,.181.014c2.316.113,4.817,2.47,6.866,6.5.027.041.041.1.072.14.294.588.574,1.208.828,1.841.28.688.547,1.389.773,2.108A24.63,24.63,0,0,1,82.8,72.563c-1.854-.633-3.709-1.262-5.518-1.882l-2.008-.715c-.674-.226-1.334-.461-1.981-.7-.868-.308-1.728-.62-2.569-.927l-.353-.14h-.38a37.829,37.829,0,0,0-6.065.479c.914-2.542,2.289-6.237,4.3-11.249a6.874,6.874,0,0,1,4.55-2.329ZM49.03,110.168c-.688,2.836-1.375,5.645-2.049,8.467-.113.461-.226.941-.339,1.4a2.774,2.774,0,0,1-2.768,2.176,2.816,2.816,0,0,1-2.121-.927,2.231,2.231,0,0,1-.308-.407,3.015,3.015,0,0,1-.366-1.04c-.52-3.1-1.095-6.459-1.728-10.028-.588-3.3-1.122-6.332-1.628-9.141C35.6,88.86,34.013,80.7,31.516,70.939,27.26,54.4,24.117,41.955,16.165,27.192A135.937,135.937,0,0,0,4.441,9.059a1.061,1.061,0,0,1,1.447-1.52,68.7,68.7,0,0,1,19.775,20.01c6,9.394,9.06,20.842,15.179,43.7.633,2.361,1.221,4.591,1.741,6.658.194.76.38,1.488.561,2.2.194.787.38,1.529.547,2.248.127.493.24.968.353,1.434.054.226.113.448.167.66.294,1.221.561,2.329.8,3.343.294-1.167.606-2.289.9-3.37.072-.226.127-.434.181-.66.394-1.389.773-2.7,1.153-3.944.321-1.081.647-2.094.954-3.062.321-1.04.647-2.008.954-2.922.253-.787.507-1.529.746-2.221A282.369,282.369,0,0,1,61,44.877c1.7-3.75,2.556-5.618,3.229-6.839C71.025,25.821,79.606,20.724,79.058,20a.237.237,0,0,0-.194-.072c-.66,0-2.6.914-4.944,2.442-.339.226-.674.448-1.027.7s-.7.493-1.054.76-.715.547-1.081.828-.728.588-1.081.887-.7.62-1.054.941H68.61c-.353.321-.688.66-1.027,1A27.115,27.115,0,0,0,64.815,30.7c-.213.28-.421.574-.62.855s-.38.574-.561.841a46.212,46.212,0,0,0-2.528,4.324c-.113.226-.213.434-.308.633-.194.407-.366.787-.52,1.135-.38.868-.633,1.56-.828,2.081-.154.407-.267.715-.366.927-.1.194-.194.294-.294.294h-.014c-1.013-.127-2.289-8.594,1.547-17.373A27.383,27.383,0,0,1,72.333,11.33c2.361-1.208,4.537-1.827,15.293-3.65,6.124-1.054,11.317-1.854,15.152-2.429a69.615,69.615,0,0,0-3.021,9.073c-2.262,8.748-1.04,11.068-3.257,15.813-3.343,7.051-10.1,10.376-10.955,10.788-7.006,3.329-10.489.253-15.252,3.989-1.628,1.28-2.669,2.782-5.658,10.181-.1.226-.181.448-.28.688-2.863,7.146-4.464,11.642-5.265,14.031-.479,1.447-.674,2.108-.674,2.108-.027.113-.072.226-.1.339-.24.828-.461,1.655-.7,2.488-.086.321-.167.633-.253.954-.746,2.709-1.434,5.351-2.081,7.906-.054.226-.113.434-.167.66-.294,1.208-.588,2.4-.868,3.569-.534,2.148-1.027,4.256-1.488,6.278v.014c-.547,2.316-1.054,4.55-1.547,6.712-.76,3.288-1.475,6.391-2.176,9.327Zm8.2-14.2a3.149,3.149,0,0,1,.982,4.071,2.474,2.474,0,0,1-2.162,1.42,1.668,1.668,0,0,1-.647-.113c.014-.041.014-.072.027-.113.407-1.782.828-3.623,1.262-5.5a2.446,2.446,0,0,1,.534.24Zm-.353,21.91c.014-.041.041-.086.054-.127a5.113,5.113,0,0,1,4.478-2.877,4.709,4.709,0,0,1,2.415.674,5.424,5.424,0,0,1,2.008,2.189l-8.96.14Zm32.412-.493-4.858.086a3.247,3.247,0,0,1,.294-2.2,2.492,2.492,0,0,1,2.162-1.42,2.176,2.176,0,0,1,1.122.321A3.059,3.059,0,0,1,89.29,117.387Zm13.171.339h-.014l-4.478.072-5.912.1a5.879,5.879,0,0,0-2.6-6.138,4.932,4.932,0,0,0-2.569-.715,5.289,5.289,0,0,0-4.663,2.935,6.03,6.03,0,0,0-.534,4.084l-12.669.213a8.348,8.348,0,0,0-3.75-5.125,6.826,6.826,0,0,0-.941-.479,6.149,6.149,0,0,0-.954-.339,5.794,5.794,0,0,0-.982-.194,5.975,5.975,0,0,0-.982-.072,7.872,7.872,0,0,0-6.966,4.4,8.863,8.863,0,0,0-.773,2.063l-2.361.041c.606-2.456,1.208-4.93,1.814-7.4.534-2.248,1.081-4.591,1.642-7.051.213.041.421.086.62.113a5.392,5.392,0,0,0,.66.041,5.254,5.254,0,0,0,4.65-2.935,5.916,5.916,0,0,0-2.022-7.766,4.689,4.689,0,0,0-1.348-.561c.407-1.714.814-3.456,1.248-5.238L68.737,87.6l7.219-.113,1.968-.027,4.13-.072.366-.014v.154a1.85,1.85,0,0,0-.014.28,4.543,4.543,0,0,0,.547,2.094,4.979,4.979,0,0,0,.841,1.108,5.3,5.3,0,0,0,3.677,1.461c.027,0,.072-.014.1-.014a5.153,5.153,0,0,0,4.7-3.021,4.673,4.673,0,0,0,.353-1.782c0-.154-.014-.308-.027-.448l1.968-.027,1.7-.027h.421l2.108-.041,5.125-.086L103.962,91a10.942,10.942,0,0,0-3.089,1.827,11.927,11.927,0,0,0-2.736,3.37,11.432,11.432,0,0,0-.7,9.634v.014a11.778,11.778,0,0,0,2.162,3.609,11.57,11.57,0,0,0,4.17,3.1l.041,3.356v.014l.014,1.769-1.348.027Zm25.46-5.351a13.662,13.662,0,0,1-11.81,4.785l-8.087-.728-.086-7.106a7.5,7.5,0,0,1-5.152-2.61,7.6,7.6,0,0,1-1.9-4.871,7.686,7.686,0,0,1,2.655-5.771,7.309,7.309,0,0,1,1-.7c.213-.113.407-.226.606-.308.027-.014.054-.014.086-.027a2.424,2.424,0,0,1,.28-.113,1.905,1.905,0,0,1,.394-.127,2.018,2.018,0,0,1,.38-.113,6.687,6.687,0,0,1,1.669-.213h.253l-.127-11.67.52-1.4c-2.221-.814-4.537-1.642-6.893-2.456a31.484,31.484,0,0,0,1.108-3.7,8.127,8.127,0,0,1,3.076-.086,10.409,10.409,0,0,1,4.03,1.827,22.264,22.264,0,0,0,5.31,2.655,24.8,24.8,0,0,0,7.445,1.108,26.733,26.733,0,0,0,3.257-.213,25.21,25.21,0,0,0,4.451-.982L127.93,112.38Zm2.7-35.868a22.367,22.367,0,0,1-5.043,1.248,22.663,22.663,0,0,1-9.467-.787,19.816,19.816,0,0,1-4.69-2.347,12.825,12.825,0,0,0-5.07-2.234,10.558,10.558,0,0,0-2.976-.054c.715-4.844.353-9.86-1.968-13.117.113-.253.226-.507.353-.746A31.843,31.843,0,0,1,104.9,54.3l.339-.421c.66-.8,1.488-1.8,2.556-3.27.353-.461.633-.855.814-1.108a19.106,19.106,0,0,0,2.221-5.03,24.517,24.517,0,0,0,.688-2.895l12.009.887a20.308,20.308,0,0,0,.534,4.7,23.161,23.161,0,0,0,1.669,4.663,25.984,25.984,0,0,0,1.714,3.076c.52.814,1.095,1.741,2.022,3.456a17.122,17.122,0,0,1,1.547,3.4,11.739,11.739,0,0,1,.461,3.288l-.855,11.461ZM78.837,98.639a4.423,4.423,0,0,0-3.13-1.262,4.663,4.663,0,0,0-4.437,4.817,4.786,4.786,0,0,0,1.447,3.41,4.327,4.327,0,0,0,3.049,1.262h.072a4.65,4.65,0,0,0,4.437-4.763v-.054a4.829,4.829,0,0,0-1.434-3.41Zm-3.049,5.419a1.569,1.569,0,0,1-1.122-.461,2.048,2.048,0,0,1-.588-1.447,1.849,1.849,0,0,1,1.687-1.968h.027a1.546,1.546,0,0,1,1.081.461,1.984,1.984,0,0,1,.588,1.434,1.848,1.848,0,0,1-1.669,1.981Zm36.623-50.64a16.671,16.671,0,0,0-3.9,4.8,17.012,17.012,0,0,0-1.827,5.464,1.405,1.405,0,0,1-1.389,1.194c-.072,0-.14-.014-.213-.014a1.425,1.425,0,0,1-1.181-1.6,19.918,19.918,0,0,1,2.135-6.378,19.558,19.558,0,0,1,4.55-5.6,1.405,1.405,0,0,1,1.827,2.135Z" transform="translate(-0.003 -0.004)"/>
    </g>
  </g>
</svg>
