<svg xmlns="http://www.w3.org/2000/svg" xmlns:xlink="http://www.w3.org/1999/xlink" width="46" height="45" viewBox="0 0 46 45">
  <defs>
    <clipPath id="clip-path">
      <rect id="Rectangle_38" data-name="Rectangle 38" width="46" height="45" transform="translate(0.474)" fill="#5e5946"/>
    </clipPath>
  </defs>
  <g id="Mask_Group_11" data-name="Mask Group 11" transform="translate(-0.474)" clip-path="url(#clip-path)">
    <g id="Layer_1" data-name="Layer 1" transform="translate(0 1.124)">
      <path id="Path_15" data-name="Path 15" d="M45.944,20.616a6.89,6.89,0,0,0-.645-1.448c-.338-.626-.558-.974-.735-1.257a6.736,6.736,0,0,1-.492-.883,6.118,6.118,0,0,1-.477-1.309,5.5,5.5,0,0,1-.143-1.28,1.412,1.412,0,0,0,.558-.306,1.554,1.554,0,0,0,.54-1.065l.062-.855a1.562,1.562,0,0,0-1.442-1.668l-5.737-.42a1.566,1.566,0,0,0-1.672,1.438l-.062.855a1.561,1.561,0,0,0,.377,1.132,1.506,1.506,0,0,0,.445.354,7.9,7.9,0,0,1-.191.808,5.038,5.038,0,0,1-.554,1.294c-.057.086-.148.211-.258.363-.345.468-.611.788-.826,1.051l-.115.143a11.6,11.6,0,0,0-1.214,1.629c-1.432-.645-3.363-.066-5.025.942-.931-1.758-2.154-2.762-3.454-2.823a2.656,2.656,0,0,0-.745.066,2.428,2.428,0,0,1,.654-.969,2.292,2.292,0,0,1,1.586-.429,7.945,7.945,0,0,0,3.334-.76,9.77,9.77,0,0,0,4.4-4.351,7.826,7.826,0,0,0,.7-2.794,18.346,18.346,0,0,1,.5-2.837,22.95,22.95,0,0,1,.965-2.9L37.259,0,34.747.374c-1.7.254-3.438.531-5.188.831-3.645.622-4.591.855-5.617,1.385A10.68,10.68,0,0,0,19.2,7.734a12.122,12.122,0,0,0-.989,4.219,6.216,6.216,0,0,0,.425,2.88,1.745,1.745,0,0,0,.483.54c-1.218,2.671-2.374,5.265-3.506,8.522l-.186.549c-.048-.191-.1-.382-.152-.578l-.018-.062c-2.111-7.877-3.168-11.832-5.322-15.2A24.956,24.956,0,0,0,2.806,1.38,1.779,1.779,0,0,0,1.8,1.065,1.807,1.807,0,0,0,.189,2.072,1.765,1.765,0,0,0,.371,3.945,44.836,44.836,0,0,1,4.236,9.929c2.6,4.815,3.626,8.828,5.054,14.388l.043.172c1.012,3.946,1.562,7.031,2.56,12.639l.086.472c.225,1.275.415,2.388.583,3.4a2.4,2.4,0,0,0,4.466.774l19.737-.329,0-.4,2.608.234c.191.018.386.029.578.029a6.078,6.078,0,0,0,4.829-2.369l.134-.172L46.156,22.2v-.052a5.687,5.687,0,0,0-.211-1.534ZM37.193,11.67a.119.119,0,0,1,.043-.086.1.1,0,0,1,.091-.029l5.737.42a.132.132,0,0,1,.12.134l-.062.855a.142.142,0,0,1-.048.086.112.112,0,0,1-.072.029h-.014l-5.742-.42h0a.135.135,0,0,1-.082-.043.159.159,0,0,1-.034-.091Zm-8.259,9.792a6.389,6.389,0,0,1,3.071-1.108,1.7,1.7,0,0,1,.869.206.4.4,0,0,1,.086.048,1.562,1.562,0,0,1,.535.645v0a6.549,6.549,0,0,1,.115,3.822,9.56,9.56,0,0,1-.286,1.06c-.029.086-.057.168-.086.248a1.127,1.127,0,0,0-.115-.038c-.234-.082-.468-.163-.7-.238-.649-.22-1.3-.44-1.945-.654-.291-.1-.588-.2-.883-.3a.327.327,0,0,0,0-.066,9.682,9.682,0,0,0-.665-3.626v0Zm-.315,4.882c.229.077.454.152.683.234s.483.157.722.238c.76.254,1.529.511,2.292.769l.3.1c.134.048.272.091.406.134a3.014,3.014,0,0,0,.286.1c.138.048.277.1.411.143.1.034.191.066.286.1a.317.317,0,0,0,.086.029l-.1,0-.277,0-.588.009H32.99l-.722.014h-.086l-3.922.062-1.08.018-.163,0h0l-.937.014-.472.009-.386,0-1.677.029-1.586.025-1.069.018-.6.009c.043-.182.091-.363.138-.545.082-.311.163-.626.243-.942.1-.377.206-.755.315-1.142q.115-.422.238-.86a10.777,10.777,0,0,1,2.46-.3l.835.3q.344.122.688.243t.7.243c.669.234,1.348.463,2.031.692.225.077.454.152.678.229Zm1.929,3.482a.783.783,0,0,1-.009.109.771.771,0,0,1-.774.558.791.791,0,0,1-.6-.225.553.553,0,0,1-.152-.258.407.407,0,0,1-.029-.152A.432.432,0,0,1,29,29.705l1.523-.025a.517.517,0,0,1,.025.143ZM24.754,18.739a.3.3,0,0,1,.062,0c.788.038,1.638.84,2.335,2.212.009.014.014.034.025.048.1.2.2.411.282.626.1.234.186.472.263.717a8.378,8.378,0,0,1,.445,2.335l-1.877-.64L25.6,23.8c-.229-.077-.454-.157-.674-.238-.3-.1-.588-.211-.874-.315l-.12-.048h-.129a12.867,12.867,0,0,0-2.063.163c.311-.865.778-2.122,1.462-3.826a2.338,2.338,0,0,1,1.548-.792ZM16.677,37.473c-.234.965-.468,1.92-.7,2.88-.038.157-.077.32-.115.477a.943.943,0,0,1-.942.74.958.958,0,0,1-.722-.315.759.759,0,0,1-.1-.138,1.025,1.025,0,0,1-.125-.354c-.177-1.055-.372-2.2-.588-3.411-.2-1.123-.382-2.154-.554-3.109-.722-4.017-1.262-6.792-2.111-10.112C9.273,18.5,8.2,14.271,5.5,9.249A46.238,46.238,0,0,0,1.511,3.082.361.361,0,0,1,2,2.565,23.367,23.367,0,0,1,8.729,9.371c2.04,3.2,3.082,7.089,5.163,14.865.215.8.415,1.562.592,2.265.066.258.129.506.191.749.066.268.129.52.186.765.043.168.082.329.12.488.018.077.038.152.057.225.1.415.191.792.272,1.137.1-.4.206-.778.306-1.146.025-.077.043-.148.062-.225.134-.472.263-.917.392-1.342.109-.368.22-.712.325-1.042.109-.354.22-.683.325-.994.086-.268.172-.52.254-.755a96.044,96.044,0,0,1,3.774-9.1c.578-1.275.869-1.911,1.1-2.326,2.312-4.155,5.231-5.889,5.045-6.134a.081.081,0,0,0-.066-.025,5.087,5.087,0,0,0-1.682.831c-.115.077-.229.152-.349.238s-.238.168-.358.258-.243.186-.368.282-.248.2-.368.3-.238.211-.358.32h0c-.12.109-.234.225-.349.338a9.223,9.223,0,0,0-.942,1.094c-.072.1-.143.2-.211.291s-.129.2-.191.286a15.718,15.718,0,0,0-.86,1.471c-.038.077-.072.148-.1.215-.066.138-.125.268-.177.386-.129.3-.215.531-.282.708-.052.138-.091.243-.125.315s-.066.1-.1.1h0c-.345-.043-.778-2.923.526-5.909A9.314,9.314,0,0,1,24.6,3.854c.8-.411,1.543-.622,5.2-1.242,2.083-.358,3.849-.631,5.154-.826a23.678,23.678,0,0,0-1.028,3.086c-.769,2.975-.354,3.765-1.108,5.379A8.316,8.316,0,0,1,29.1,13.92c-2.383,1.132-3.568.086-5.188,1.357-.554.435-.908.946-1.925,3.463-.034.077-.062.152-.1.234-.974,2.431-1.518,3.96-1.791,4.772-.163.492-.229.717-.229.717-.009.038-.025.077-.034.115-.082.282-.157.563-.238.846l-.086.325c-.254.922-.488,1.82-.708,2.689-.018.077-.038.148-.057.225-.1.411-.2.817-.3,1.214-.182.731-.349,1.448-.506,2.135v0c-.186.788-.358,1.548-.526,2.283-.258,1.118-.5,2.174-.74,3.172Zm2.789-4.829a1.071,1.071,0,0,1,.334,1.385.842.842,0,0,1-.735.483.568.568,0,0,1-.22-.038c0-.014,0-.025.009-.038.138-.606.282-1.232.429-1.872a.832.832,0,0,1,.182.082Zm-.12,7.452c0-.014.014-.029.018-.043a1.739,1.739,0,0,1,1.523-.978,1.6,1.6,0,0,1,.822.229,1.845,1.845,0,0,1,.683.745l-3.048.048Zm11.025-.168-1.652.029a1.1,1.1,0,0,1,.1-.749.848.848,0,0,1,.735-.483.74.74,0,0,1,.382.109,1.041,1.041,0,0,1,.435,1.094Zm4.48.115h0l-1.523.025-2.011.034a2,2,0,0,0-.883-2.088,1.677,1.677,0,0,0-.874-.243,1.8,1.8,0,0,0-1.586,1,2.051,2.051,0,0,0-.182,1.389l-4.309.072A2.839,2.839,0,0,0,22.2,38.488a2.322,2.322,0,0,0-.32-.163,2.092,2.092,0,0,0-.325-.115,1.971,1.971,0,0,0-.334-.066,2.032,2.032,0,0,0-.334-.025,2.677,2.677,0,0,0-2.369,1.5,3.015,3.015,0,0,0-.263.7l-.8.014c.206-.835.411-1.677.617-2.517.182-.765.368-1.562.558-2.4.072.014.143.029.211.038a1.834,1.834,0,0,0,.225.014,1.787,1.787,0,0,0,1.582-1,2.012,2.012,0,0,0-.688-2.642,1.6,1.6,0,0,0-.458-.191c.138-.583.277-1.175.425-1.782L23.38,29.8l2.455-.038.669-.009,1.4-.025.125,0v.052a.629.629,0,0,0,0,.1,1.545,1.545,0,0,0,.186.712,1.694,1.694,0,0,0,.286.377,1.8,1.8,0,0,0,1.251.5c.009,0,.025,0,.034,0a1.753,1.753,0,0,0,1.6-1.028,1.589,1.589,0,0,0,.12-.606c0-.052,0-.1-.009-.152l.669-.009.578-.009h.143l.717-.014,1.743-.029.014,1.352a3.722,3.722,0,0,0-1.051.622,4.057,4.057,0,0,0-.931,1.146A3.889,3.889,0,0,0,33.142,36v0a4.006,4.006,0,0,0,.735,1.228A3.936,3.936,0,0,0,35.3,38.287l.014,1.142v0l0,.6-.458.009Zm8.66-1.82a4.647,4.647,0,0,1-4.017,1.628L36.744,39.6l-.029-2.417a2.551,2.551,0,0,1-1.752-.888,2.586,2.586,0,0,1-.645-1.657,2.614,2.614,0,0,1,.9-1.963,2.485,2.485,0,0,1,.338-.238c.072-.038.138-.077.206-.1.009,0,.018,0,.029-.009a.825.825,0,0,1,.1-.038.648.648,0,0,1,.134-.043.686.686,0,0,1,.129-.038,2.274,2.274,0,0,1,.568-.072h.086l-.043-3.969.177-.477c-.755-.277-1.543-.558-2.345-.835a10.708,10.708,0,0,0,.377-1.257,2.765,2.765,0,0,1,1.046-.029,3.541,3.541,0,0,1,1.371.622,7.573,7.573,0,0,0,1.806.9,8.435,8.435,0,0,0,2.532.377,9.092,9.092,0,0,0,1.108-.072,8.575,8.575,0,0,0,1.514-.334l-.835,11.163Zm.917-12.2a7.608,7.608,0,0,1-1.715.425,7.709,7.709,0,0,1-3.22-.268,6.74,6.74,0,0,1-1.6-.8,4.362,4.362,0,0,0-1.725-.76A3.591,3.591,0,0,0,35.16,24.6a6.345,6.345,0,0,0-.669-4.462c.038-.086.077-.172.12-.254A10.831,10.831,0,0,1,35.68,18.47l.115-.143c.225-.272.506-.611.869-1.112.12-.157.215-.291.277-.377a6.5,6.5,0,0,0,.755-1.711,8.34,8.34,0,0,0,.234-.985l4.085.3a6.908,6.908,0,0,0,.182,1.6,7.878,7.878,0,0,0,.568,1.586,8.838,8.838,0,0,0,.583,1.046c.177.277.372.592.688,1.175a5.824,5.824,0,0,1,.526,1.155,3.993,3.993,0,0,1,.157,1.118l-.291,3.9ZM26.816,33.551a1.5,1.5,0,0,0-1.065-.429,1.586,1.586,0,0,0-1.509,1.638,1.628,1.628,0,0,0,.492,1.16,1.472,1.472,0,0,0,1.037.429H25.8A1.582,1.582,0,0,0,27.3,34.73v-.018a1.643,1.643,0,0,0-.488-1.16Zm-1.037,1.843a.534.534,0,0,1-.382-.157.7.7,0,0,1-.2-.492.629.629,0,0,1,.574-.669h.009a.526.526,0,0,1,.368.157.675.675,0,0,1,.2.488.629.629,0,0,1-.568.674ZM38.236,18.17A5.67,5.67,0,0,0,36.908,19.8a5.786,5.786,0,0,0-.622,1.858.478.478,0,0,1-.472.406c-.025,0-.048,0-.072,0a.485.485,0,0,1-.4-.545,6.775,6.775,0,0,1,.726-2.169,6.653,6.653,0,0,1,1.548-1.906.478.478,0,0,1,.622.726Z" transform="translate(-0.001 -0.002)" fill="#5e5946"/>
    </g>
  </g>
</svg>
